<?xml version="1.0" encoding="UTF-8"?>
<svg width="45px" height="45px" viewBox="0 0 45 45" version="1.1" xmlns="http://www.w3.org/2000/svg" xmlns:xlink="http://www.w3.org/1999/xlink">
    <title>AR</title>
    <g id="AR" stroke="none" stroke-width="1" fill="none" fill-rule="evenodd">
        <g id="Group" transform="translate(7.000000, 15.000000)" fill-rule="nonzero">
            <path d="M3.7890625,14.0917969 L5.38085938,10.9960938 L9.98046875,10.9960938 L10.2148438,14.0917969 L13.8574219,14.0917969 L12.2363281,0 L7.8515625,0 L0,14.0917969 L3.7890625,14.0917969 Z M9.83398438,8.41796875 L6.6796875,8.41796875 L9.36523438,3.14453125 L9.44335938,3.14453125 L9.83398438,8.41796875 Z M18.7109375,14.0917969 L19.7558594,9.16015625 L21.7089844,9.16015625 L23.1542969,14.0917969 L26.8945312,14.0917969 L25.234375,8.80859375 C27.4414062,8.05664062 28.6621094,6.1328125 28.6621094,4.09179688 C28.6621094,1.71875 27.0117188,0 24.1210938,0 L18.1152344,0 L15.1171875,14.0917969 L18.7109375,14.0917969 Z M22.5,6.63085938 L20.2832031,6.63085938 L21.1328125,2.70507812 L23.1347656,2.70507812 C24.3554688,2.70507812 25.0488281,3.30078125 25.0488281,4.39453125 C25.0488281,5.703125 24.0429688,6.63085938 22.5,6.63085938 Z" id="AR-shadow" fill="#CFDCE6"></path>
            <path d="M5.29117188,14.0917969 L6.88296875,10.9960938 L11.4825781,10.9960938 L11.7169531,14.0917969 L15.3595313,14.0917969 L13.7384375,0 L9.35367188,0 L1.50210938,14.0917969 L5.29117188,14.0917969 Z M11.3360938,8.41796875 L8.18179688,8.41796875 L10.8673438,3.14453125 L10.9454688,3.14453125 L11.3360938,8.41796875 Z M20.2130469,14.0917969 L21.2579688,9.16015625 L23.2110938,9.16015625 L24.6564063,14.0917969 L28.3966406,14.0917969 L26.7364844,8.80859375 C28.9435156,8.05664062 30.1642188,6.1328125 30.1642188,4.09179688 C30.1642188,1.71875 28.5138281,0 25.6232031,0 L19.6173438,0 L16.6192969,14.0917969 L20.2130469,14.0917969 Z M24.0021094,6.63085938 L21.7853125,6.63085938 L22.6349219,2.70507812 L24.636875,2.70507812 C25.8575781,2.70507812 26.5509375,3.30078125 26.5509375,4.39453125 C26.5509375,5.703125 25.5450781,6.63085938 24.0021094,6.63085938 Z" id="AR" fill="#0095FF"></path>
        </g>
    </g>
</svg>