<?xml version="1.0" encoding="UTF-8"?>
<svg width="288px" height="36px" viewBox="0 0 288 36" version="1.1" xmlns="http://www.w3.org/2000/svg" xmlns:xlink="http://www.w3.org/1999/xlink">
    <title>nhbank-en</title>
    <g id="nhbank-en" stroke="none" stroke-width="1" fill="none" fill-rule="evenodd">
        <g id="Group">
            <path d="M19.26657,1.77635684e-15 L12.95307,3.1707 L6.64767,1.77635684e-15 L12.95307,11.9988 L19.26657,1.77635684e-15 Z M21.4722,9.27153 L21.3732,9.18873 L25.8759,7.29693 L25.8759,0.96633 L18.054,4.29993 C18.054,4.29993 13.815,12.32523 13.7205,12.51333 C17.0397,12.90933 19.5327,15.69123 19.5327,19.04103 C19.5327,22.67253 16.5789,25.62813 12.9528,25.62813 C9.3213,25.62813 6.3729,22.67253 6.3729,19.04103 C6.3729,15.69123 8.8623,12.90933 12.1815,12.51333 C12.0834,12.32523 7.8534,4.29993 7.8534,4.29993 L0.0405,0.96633 L0.0405,7.29693 L4.5369,9.18873 L4.4415,9.27153 C1.62,11.73933 1.24344979e-14,15.30063 1.24344979e-14,19.04103 C1.24344979e-14,26.18703 5.8131,32.00013 12.9528,32.00013 C20.0961,32.00013 25.9056,26.18703 25.9056,19.04103 C25.9056,15.30423 24.2901,11.74293 21.4722,9.27153" id="Symbol" fill="#FCB813"></path>
            <path d="M52.8417,28.55385 C51.4422,28.55385 50.3172,28.04175 49.6665,26.81415 L40.9005,10.47465 L40.9005,28.55385 L38.0025,28.55385 C37.0827,28.55385 36.2979,27.76725 36.2979,26.84655 L36.2979,5.01435 L40.0491,5.01435 C41.4468,5.01435 42.5736,5.52735 43.2234,6.75675 L51.9876,23.09355 L51.9876,5.01435 L54.8874,5.01435 C55.8108,5.01435 56.5929,5.80005 56.5929,6.72165 L56.5929,28.55385 L52.8417,28.55385 Z" id="N" fill="#0066B2"></path>
            <path d="M68.73318,14.15736 C66.24558,14.15736 64.33398,16.30746 64.33398,19.85346 C64.33398,23.40216 66.24558,25.55136 68.73318,25.55136 C71.22528,25.55136 73.13598,23.40216 73.13598,19.85346 C73.13598,16.30746 71.22528,14.15736 68.73318,14.15736 M68.73318,28.96236 C63.48168,28.96236 59.48928,25.55136 59.48928,19.85346 C59.48928,14.15736 63.48168,10.74726 68.73318,10.74726 C73.98738,10.74726 77.97798,14.15736 77.97798,19.85346 C77.97798,25.55136 73.98738,28.96236 68.73318,28.96236" id="o" fill="#0066B2"></path>
            <path d="M95.54553,28.55385 L92.64573,28.55385 L92.64573,18.31815 C92.64573,16.37505 91.69083,14.56785 89.74593,14.56785 L85.13973,14.56785 L85.13973,28.55385 L82.23993,28.55385 C81.31923,28.55385 80.53623,27.76725 80.53623,26.84655 L80.53623,11.15595 L91.28133,11.15595 C94.72743,11.15595 97.25013,13.84875 97.25013,17.29395 L97.25013,26.84655 C97.25013,27.76725 96.46533,28.55385 95.54553,28.55385" id="n" fill="#0066B2"></path>
            <path d="M108.88119,14.15736 C106.56189,14.15736 104.65029,15.96546 104.65029,19.65006 C104.65029,23.33376 106.56189,25.14096 108.88119,25.14096 C111.19869,25.14096 113.10849,22.99176 113.10849,19.65006 C113.10849,16.34256 111.19869,14.15736 108.88119,14.15736 M108.67599,35.71686 L103.90149,35.71686 C102.97989,35.71686 102.19419,34.93386 102.19419,34.01316 L102.19419,32.30676 L107.65269,32.30676 C110.85939,32.30676 113.10849,30.73806 113.10849,27.52956 L113.10849,26.30196 C111.60909,27.76716 109.56339,28.55376 107.30979,28.55376 C102.84219,28.55376 99.80649,25.20846 99.80649,19.65006 C99.80649,14.09256 102.84219,10.74726 107.30979,10.74726 C109.62909,10.74726 111.77919,11.66886 113.28039,13.33926 L113.28039,11.22606 L116.01009,11.22606 C116.93169,11.22606 117.71379,12.00906 117.71379,12.93156 L117.71379,27.86976 C117.71379,32.92056 113.72499,35.71686 108.67599,35.71686" id="g" fill="#0066B2"></path>
            <path d="M123.1713,28.55385 C122.2497,28.55385 121.4658,27.76725 121.4658,26.84655 L121.4658,6.72165 C121.4658,5.80005 122.2497,5.01435 123.1713,5.01435 L126.1395,5.01435 L126.1395,14.39415 L136.5759,14.39415 L136.5759,5.01435 L139.545,5.01435 C140.4657,5.01435 141.2487,5.80005 141.2487,6.72165 L141.2487,26.84655 C141.2487,27.76725 140.4657,28.55385 139.545,28.55385 L136.5759,28.55385 L136.5759,17.97615 L126.1395,17.97615 L126.1395,28.55385 L123.1713,28.55385 Z" id="H" fill="#0066B2"></path>
            <path d="M146.36349,11.15595 C147.62709,11.15595 148.61619,11.83995 149.05989,13.03335 L153.01629,23.70735 L157.00869,13.03335 C157.44879,11.83995 158.44149,11.15595 159.70149,11.15595 L162.26109,11.15595 L154.72089,29.40525 C152.94789,33.67125 151.20819,35.71695 147.86559,35.71695 L146.05569,35.71695 C145.13679,35.71695 144.35199,34.93395 144.35199,34.01235 L144.35199,32.37165 L146.73969,32.37165 C149.09409,32.37165 150.25149,30.70305 150.66279,29.16675 L143.36289,11.15595 L146.36349,11.15595 Z" id="y" fill="#0066B2"></path>
            <path d="M170.00073,28.55385 C166.55733,28.55385 164.03193,25.85745 164.03193,22.41225 L164.03193,12.86235 C164.03193,11.94255 164.81673,11.15595 165.73653,11.15595 L168.63723,11.15595 L168.63723,21.38895 C168.63723,23.33385 169.59123,25.14105 171.53703,25.14105 L176.14233,25.14105 L176.14233,11.15595 L179.04213,11.15595 C179.96373,11.15595 180.74583,11.94255 180.74583,12.86235 L180.74583,28.55385 L170.00073,28.55385 Z" id="u" fill="#0066B2"></path>
            <path d="M192.99123,14.15736 C190.67373,14.15736 188.76213,16.37496 188.76213,19.85346 C188.76213,23.33376 190.67373,25.55136 192.99123,25.55136 C195.31143,25.55136 197.22033,23.67486 197.22033,19.85346 C197.22033,16.03476 195.31143,14.15736 192.99123,14.15736 L192.99123,14.15736 Z M185.86053,35.71686 C184.94253,35.71686 184.15683,34.93386 184.15683,34.01316 L184.15683,12.93156 C184.15683,12.00906 184.94253,11.22606 185.86053,11.22606 L188.59113,11.22606 L188.59113,13.40586 C190.09233,11.66886 192.24153,10.74726 194.56083,10.74726 C199.03113,10.74726 202.06503,14.15736 202.06503,19.85346 C202.06503,25.55136 199.03113,28.96236 194.56083,28.96236 C192.30993,28.96236 190.26333,28.17846 188.76213,26.67726 L188.76213,35.71686 L185.86053,35.71686 Z" id="p" fill="#0066B2"></path>
            <path d="M218.60604,18.1503 L215.02404,18.1503 L215.02404,25.209 L218.60604,25.209 C221.40234,25.209 223.72344,24.3567 223.72344,21.663 C223.72344,18.9675 221.40234,18.1503 218.60604,18.1503 M218.43594,8.3583 L215.02404,8.3583 L215.02404,14.8077 L218.43594,14.8077 C221.23224,14.8077 223.21044,14.0571 223.21044,11.5983 C223.21044,9.1107 221.23224,8.3583 218.43594,8.3583 M219.11814,28.5543 L212.12514,28.5543 C211.20354,28.5543 210.41964,27.7677 210.41964,26.8461 L210.41964,6.7221 C210.41964,5.7996 211.20354,5.0139 212.12514,5.0139 L219.11814,5.0139 C224.23644,5.0139 227.64654,6.552 227.64654,10.9188 C227.64654,13.5441 226.14624,15.3864 223.89534,16.4448 C226.07784,17.091 228.32874,19.0359 228.32874,22.005 C228.32874,27.0873 224.37144,28.5543 219.11814,28.5543" id="B" fill="#0066B2"></path>
            <path d="M234.63729,23.19957 C234.63729,24.66567 236.24019,25.20837 237.63789,25.20837 L241.86699,25.20837 L241.86699,20.46897 C237.63789,20.19447 234.63729,20.53377 234.63729,23.19957 M244.69749,28.55367 L236.51289,28.55367 C232.28109,28.55367 230.03199,26.43777 230.03199,23.19957 C230.03199,18.89757 234.43119,16.71687 241.83369,17.43147 C241.63029,15.35157 240.60519,14.02137 238.38849,14.02137 C235.96659,14.02137 233.78499,14.70357 232.07769,15.79347 L232.07769,12.18087 C233.78499,11.29437 236.64969,10.74717 238.72959,10.74717 C243.46989,10.74717 246.40569,13.09887 246.40569,17.97597 L246.40569,26.84637 C246.40569,27.76707 245.61999,28.55367 244.69749,28.55367" id="a" fill="#0066B2"></path>
            <path d="M264.65373,28.55385 L261.75393,28.55385 L261.75393,18.31815 C261.75393,16.37505 260.79813,14.56785 258.85503,14.56785 L254.24883,14.56785 L254.24883,28.55385 L251.35083,28.55385 C250.42833,28.55385 249.64353,27.76725 249.64353,26.84655 L249.64353,11.15595 L260.38953,11.15595 C263.83473,11.15595 266.35923,13.84875 266.35923,17.29395 L266.35923,26.84655 C266.35923,27.76725 265.57443,28.55385 264.65373,28.55385" id="n" fill="#0066B2"></path>
            <path d="M271.47312,28.55385 C270.55332,28.55385 269.76672,27.76725 269.76672,26.84655 L269.76672,5.69925 C269.76672,4.77495 270.55332,3.99285 271.47312,3.99285 L274.37292,3.99285 L274.37292,18.04545 L280.27332,12.18105 C281.05812,11.39445 281.84292,11.15595 282.93462,11.15595 L286.85862,11.15595 L278.77392,19.00035 L287.50482,28.55385 L283.24332,28.55385 C282.28752,28.55385 281.67372,28.24515 281.02392,27.52965 L274.37292,20.05965 L274.37292,28.55385 L271.47312,28.55385 Z" id="k" fill="#0066B2"></path>
        </g>
    </g>
</svg>