<?xml version="1.0" encoding="UTF-8"?>
<svg width="245px" height="36px" viewBox="0 0 245 36" version="1.1" xmlns="http://www.w3.org/2000/svg" xmlns:xlink="http://www.w3.org/1999/xlink">
    <title>nhbank-ko</title>
    <g id="nhbank-ko" stroke="none" stroke-width="1" fill="none" fill-rule="evenodd">
        <g id="Group">
            <path d="M21.4983,0 L14.4558,3.5352 L7.4133,0 L14.4558,13.3875 L21.4983,0 Z M23.9625,10.34784 L23.8563,10.25424 L28.8783,8.14104 L28.8783,1.07604 L20.1465,4.79934 C20.1465,4.79934 15.4215,13.75704 15.3108,13.96134 C19.0161,14.40504 21.7971,17.51274 21.7971,21.25134 C21.7971,25.30494 18.504,28.60254 14.4558,28.60254 C10.404,28.60254 7.1091,25.30494 7.1091,21.25134 C7.1091,17.51274 9.8883,14.40504 13.5918,13.96134 C13.4856,13.75704 8.7624,4.79934 8.7624,4.79934 L0.0414,1.07604 L0.0414,8.14104 L5.0652,10.25424 L4.9563,10.34784 C1.8072,13.10094 0,17.07534 0,21.25134 C0,29.22714 6.4827,35.71614 14.4558,35.71614 C22.4253,35.71614 28.9134,29.22714 28.9134,21.25134 C28.9134,17.07894 27.1089,13.10454 23.9625,10.34784" id="Symbol" fill="#FCB813"></path>
            <path d="M67.77117,5.02956 L63.54747,5.02956 L63.54747,25.95906 L50.85747,9.24336 C48.74967,6.80166 47.29887,5.02956 43.92747,5.02956 L39.62907,5.02956 L39.62907,30.21156 C39.62907,31.39326 40.43637,32.36436 41.44977,32.36436 L45.66537,32.36436 L45.66537,11.33586 L58.43367,27.94176 C60.59007,30.43656 62.51157,32.36436 65.63637,32.36436 L69.58017,32.36436 L69.58017,7.17966 C69.58017,5.99076 68.77017,5.02956 67.77117,5.02956" id="N" fill="#0066B2"></path>
            <path d="M102.3111,5.02956 L98.091,5.02956 L98.091,15.92586 L80.8389,15.92586 L80.8389,5.02956 L76.6188,5.02956 C75.6234,5.02956 74.8071,5.99076 74.8071,7.17966 L74.8071,30.21156 C74.8071,31.39326 75.6153,32.36436 76.6188,32.36436 L80.8389,32.36436 L80.8389,20.66076 L98.091,20.66076 L98.091,32.36436 L102.3111,32.36436 C103.3146,32.36436 104.1264,31.39326 104.1264,30.21156 L104.1264,7.17966 C104.1264,5.99076 103.3245,5.02956 102.3111,5.02956" id="H" fill="#0066B2"></path>
            <path d="M131.84325,22.03686 C133.22205,22.91436 134.05095,24.19236 134.05095,25.89516 C134.05095,29.61486 130.04775,31.31496 125.09325,31.31496 C120.14505,31.31496 116.14185,29.61486 116.14185,25.89516 C116.14185,22.17636 120.08925,20.48256 125.09325,20.48256 L125.03115,20.47086 L139.92705,20.47086 C140.12955,20.47086 140.28885,20.30886 140.31405,20.06406 C140.33025,19.94886 140.41035,19.32426 140.30955,18.80046 C140.26545,18.58626 140.12325,18.44946 139.92435,18.44946 L127.41615,18.44946 L127.41615,14.58396 L139.31955,14.58396 C139.52835,14.58396 139.68585,14.42016 139.71375,14.18436 C139.72995,14.06556 139.80645,13.43466 139.70835,12.91446 C139.66605,12.70206 139.51485,12.56976 139.31055,12.56976 L116.75025,12.56976 C116.12025,12.56976 115.59735,12.06936 115.59735,11.46546 L115.59735,5.95566 C115.59735,5.33916 115.07715,4.84866 114.44265,4.84866 L110.90025,4.84866 L110.90025,12.50226 C110.90025,13.64256 111.87855,14.58396 113.08995,14.58396 L122.71365,14.58396 L122.71365,18.44946 L108.91035,18.44946 L110.24505,20.47086 L114.36165,20.47086 C112.55175,21.70656 111.46905,23.43366 111.46905,25.65486 C111.46905,30.95676 117.57465,33.36966 125.09325,33.36966 C132.61995,33.36966 138.72555,30.95676 138.72555,25.65486 C138.72555,24.24636 138.29625,23.04216 137.51775,22.03686 L131.84325,22.03686 Z" id="농" fill="#0066B2"></path>
            <path d="M169.09416,14.4 L163.50426,14.4 C163.62846,13.9608 163.69416,13.4892 163.69416,13.0158 C163.69416,12.5847 163.63656,12.1545 163.53396,11.7297 L169.09416,11.7297 L169.09416,14.4 Z M169.09416,30.2355 L152.08236,30.2355 C151.72326,30.2355 151.43166,29.9574 151.43166,29.6046 L151.43166,26.0667 L169.09416,26.0667 L169.09416,30.2355 Z M157.70106,9.6678 C157.94856,9.9396 158.16276,10.2429 158.34546,10.5741 C158.75136,11.2932 158.99346,12.1347 158.99346,13.0158 C158.99346,15.7572 157.01436,17.9739 154.10736,17.9739 C151.19136,17.9739 149.22216,15.7572 149.22216,13.0158 C149.22216,10.3077 151.31646,8.0955 154.04706,8.0658 L164.55996,8.0658 C164.75886,8.0658 164.92176,7.8984 164.95056,7.6563 C164.96766,7.5375 165.05136,6.8886 164.94606,6.3585 C164.90016,6.1353 164.75616,6.0057 164.54916,6.0057 L156.52026,6.0057 L156.52026,4.8996 C156.52026,4.2804 155.99466,3.7764 155.33136,3.7764 L151.69086,3.7764 L151.69086,6.0057 L142.54956,6.0057 C142.73856,6.2739 143.86176,7.9893 143.91396,8.0658 L147.36186,8.0658 C145.59336,9.3285 144.50706,11.0817 144.50706,13.0158 C144.50706,16.8651 148.37346,19.9692 154.10736,19.9692 C157.96386,19.9692 160.79076,18.567 162.44316,16.4619 L169.09416,16.4619 L169.09416,24.0057 L151.43166,24.0057 L151.43166,21.9033 C151.43166,21.2697 150.90246,20.7684 150.24456,20.7684 L146.61396,20.7684 L146.61396,30.1635 C146.61396,31.3353 147.62826,32.2974 148.86306,32.2974 L173.93796,32.2974 L173.93796,5.4621 C173.93796,4.833 173.40156,4.3299 172.74996,4.3299 L169.09416,4.3299 L169.09416,9.6678 L157.70106,9.6678 Z" id="협" fill="#0066B2"></path>
            <path d="M194.36841,6.5061 C189.16641,6.5061 185.35491,7.7895 185.35491,10.683 C185.35491,13.5765 189.16641,14.8581 194.36841,14.8581 C199.57221,14.8581 203.38101,13.5765 203.38101,10.683 C203.38101,7.7895 199.57221,6.5061 194.36841,6.5061 M208.61991,32.2974 L182.64411,32.2974 C181.43541,32.2974 180.44541,31.3092 180.44541,30.0987 L180.44541,23.5053 L184.11111,23.5053 C184.69791,23.5053 185.21181,24.0174 185.21181,24.6033 L185.21181,29.1474 C185.21181,29.7324 185.72481,30.2436 186.30981,30.2436 L208.61991,30.2436 C208.95111,30.2436 209.02221,30.6486 209.02221,31.2714 C209.02221,31.8951 208.95111,32.2974 208.61991,32.2974 M194.36841,16.9092 C186.45381,16.9092 180.44541,14.8959 180.44541,10.683 C180.44541,6.4683 186.45381,4.455 194.36841,4.455 C202.28211,4.455 208.29051,6.4683 208.29051,10.683 C208.29051,14.8959 202.28211,16.9092 194.36841,16.9092 M209.71881,21.6729 L179.20161,21.6729 L177.88131,19.6209 L209.71881,19.6209 C210.04911,19.6209 210.12471,20.025 210.12471,20.646 C210.12471,21.2697 210.04911,21.6729 209.71881,21.6729" id="은" fill="#0066B2"></path>
            <path d="M242.72496,24.03198 L237.12336,24.03198 C238.41216,24.76818 239.15016,25.78878 239.15016,27.19638 C239.15016,30.29688 235.46466,31.63968 230.45256,31.63968 C225.43956,31.63968 221.75316,30.29688 221.75316,27.19638 C221.75316,24.09678 225.43956,22.72158 230.45256,22.72158 L239.42106,22.72158 L243.99846,22.72158 L243.99846,20.87478 L243.99846,5.55318 C243.99846,4.96728 243.48366,4.45518 242.90226,4.45518 L239.42106,4.45518 L239.42106,10.31508 L236.85426,10.31508 L236.85426,5.55318 C236.85426,4.96728 236.34216,4.45518 235.75536,4.45518 L232.27686,4.45518 L232.27686,19.47888 L236.85426,19.47888 L236.85426,12.51468 L239.42106,12.51468 L239.42106,20.87478 L230.45256,20.87478 C222.56496,20.87478 216.63396,23.04198 216.63396,27.25938 C216.63396,31.47948 222.56496,33.64758 230.45256,33.64758 C238.33926,33.64758 244.27116,31.47948 244.27116,27.25938 C244.27116,25.98228 243.71766,24.89598 242.72496,24.03198 M230.47875,13.00302 C230.47875,11.77092 230.08905,10.62972 229.37175,9.65592 L224.75025,9.65592 C225.55665,10.53162 225.84375,11.70432 225.84375,12.97152 C225.84375,15.15222 224.87805,17.48052 222.18345,17.48052 C219.95595,17.48052 218.46555,15.29802 218.46555,12.97152 C218.46555,10.50012 219.81015,8.32122 222.15195,8.32122 L231.01785,8.32122 C231.28875,8.32122 231.34815,7.80012 231.34815,7.24842 C231.34815,6.69672 231.28875,6.28452 231.01785,6.28452 L224.49375,6.28452 L224.49375,4.54842 C224.49375,4.02732 224.07525,3.57192 223.59375,3.57192 L219.60495,3.57192 L219.60495,6.28452 L212.48145,6.28452 L213.55515,8.32122 L216.25335,8.32122 C214.75485,9.49122 213.99705,11.15172 213.99705,13.00302 C213.99705,16.61382 217.24245,19.50822 222.18345,19.50822 C227.09385,19.50822 230.47875,16.61382 230.47875,13.00302" id="행" fill="#0066B2"></path>
        </g>
    </g>
</svg>