<?xml version="1.0" encoding="UTF-8"?>
<svg width="579px" height="93px" viewBox="0 0 579 93" version="1.1" xmlns="http://www.w3.org/2000/svg" xmlns:xlink="http://www.w3.org/1999/xlink">
    <title>Artboard</title>
    <g id="Artboard" stroke="none" stroke-width="1" fill="none" fill-rule="evenodd">
        <path d="M49,3 C21.9378654,3 0,20.2143101 0,41.4488718 C0,55.1774635 9.17148077,67.2236826 22.9678077,74.0258507 C22.2172596,76.6019251 18.1446058,90.5982522 17.9825288,91.6977961 C17.9825288,91.6977961 17.885,92.523978 18.4225865,92.8390712 C18.9601731,93.1541644 19.5924615,92.9094045 19.5924615,92.9094045 C21.1340769,92.6951224 37.4694519,81.2758074 40.2968462,79.2928772 C43.1214135,79.6909637 46.0298462,79.8977436 49,79.8977436 C76.0621346,79.8977436 98,62.6839024 98,41.4488718 C98,20.2143101 76.0621346,3 49,3 Z" id="Path" fill="#000000" fill-rule="nonzero"></path>
        <path d="M138.018,79.673 L138.018,1.166 L128.91,3.146 L128.91,79.673 L138.018,79.673 Z M165.243,81.059 L172.272,75.614 L151.977,51.26 L169.5,29.282 L162.372,24.134 L141.285,51.755 L165.243,81.059 Z M194.147,80.564 C199.592,80.564 206.225,78.089 211.571,73.733 L212.66,79.673 L219.392,79.673 L219.392,45.023 C219.392,31.46 212.957,24.53 200.186,24.53 C194.246,24.53 187.613,26.312 182.267,29.282 L184.94,35.717 C189.296,33.737 194.84,32.252 199.592,32.252 C207.017,32.252 210.68,36.311 210.68,44.825 L210.68,48.29 L200.186,48.29 C186.227,48.29 178.703,54.23 178.703,65.12 C178.703,74.723 184.544,80.564 194.147,80.564 Z M195.731,73.238 C190.187,73.238 187.316,70.367 187.316,64.724 C187.316,57.695 191.573,54.428 201.176,54.428 L210.68,54.428 L210.68,67.1 C207.017,70.565 200.681,73.238 195.731,73.238 Z M246.019,79.673 L246.019,1.166 L236.911,3.146 L236.911,79.673 L246.019,79.673 Z M273.244,81.059 L280.273,75.614 L259.978,51.26 L277.501,29.282 L270.373,24.134 L249.286,51.755 L273.244,81.059 Z M302.148,80.564 C307.593,80.564 314.226,78.089 319.572,73.733 L320.661,79.673 L327.393,79.673 L327.393,45.023 C327.393,31.46 320.958,24.53 308.187,24.53 C302.247,24.53 295.614,26.312 290.268,29.282 L292.941,35.717 C297.297,33.737 302.841,32.252 307.593,32.252 C315.018,32.252 318.681,36.311 318.681,44.825 L318.681,48.29 L308.187,48.29 C294.228,48.29 286.704,54.23 286.704,65.12 C286.704,74.723 292.545,80.564 302.148,80.564 Z M303.732,73.238 C298.188,73.238 295.317,70.367 295.317,64.724 C295.317,57.695 299.574,54.428 309.177,54.428 L318.681,54.428 L318.681,67.1 C315.018,70.565 308.682,73.238 303.732,73.238 Z M365.9,80.861 C380.948,80.861 390.056,70.763 390.056,52.943 C390.056,34.826 380.849,24.629 365.9,24.629 C351.05,24.629 341.744,34.826 341.744,52.943 C341.744,70.763 350.951,80.861 365.9,80.861 Z M365.9,73.535 C356.396,73.535 351.149,66.407 351.149,52.943 C351.149,39.281 356.396,31.955 365.9,31.955 C375.503,31.955 380.75,39.281 380.75,52.943 C380.75,66.407 375.503,73.535 365.9,73.535 Z M421.93,81.158 C427.969,81.158 435.493,78.881 437.671,77.198 L434.503,67.001 C431.83,67.892 428.365,68.783 425.593,68.783 C421.633,68.783 419.95,67.298 419.95,58.883 L419.95,36.509 L435.592,36.509 L435.592,25.619 L419.95,25.619 L419.95,11.858 L405.298,15.026 L405.298,25.619 L396.883,26.708 L396.883,36.509 L405.298,36.509 L405.298,59.972 C405.298,73.931 410.941,81.158 421.93,81.158 Z M460.14,81.158 C464.991,81.158 470.337,79.376 476.178,75.119 L477.663,79.673 L487.86,79.673 L487.86,45.32 C487.86,31.361 480.336,24.035 466.476,24.035 C459.447,24.035 451.527,26.51 446.379,30.074 L450.339,39.776 C454.992,37.499 460.734,36.212 465.189,36.212 C471.03,36.212 474.396,38.984 474.396,44.924 L474.396,46.706 L466.179,46.706 C451.527,46.706 443.607,52.745 443.607,64.13 C443.607,74.822 449.547,81.158 460.14,81.158 Z M462.912,69.971 C458.655,69.971 456.576,67.991 456.576,63.932 C456.576,58.586 460.338,55.913 467.763,55.913 L474.396,55.913 L474.396,65.813 C471.921,67.991 466.872,69.971 462.912,69.971 Z M516.566,79.673 L516.566,0.77 L502.112,3.344 L502.112,79.673 L516.566,79.673 Z M568.141,81.554 L579.229,72.941 L560.716,50.963 L577.249,29.975 L566.26,22.451 L545.668,50.369 L545.668,0.77 L531.214,3.344 L531.214,79.673 L545.668,79.673 L545.668,53.834 L568.141,81.554 Z" id="kakaotalk" fill="#000000" fill-rule="nonzero"></path>
    </g>
</svg>