<?xml version="1.0" encoding="UTF-8"?>
<svg width="381px" height="86px" viewBox="0 0 381 86" version="1.1" xmlns="http://www.w3.org/2000/svg" xmlns:xlink="http://www.w3.org/1999/xlink">
    <title>yt_logo_mono_light</title>
    <g id="yt_logo_mono_light" stroke="none" stroke-width="1" fill="none" fill-rule="evenodd">
        <path d="M61.1379267,0.961548208 C65.1981424,0.9701368 99.30044,1.11328 108.206,3.499 C113.433,4.896 117.549,9.013 118.946,14.239 C121.274083,22.930328 121.466638,40.2807293 121.482564,43.0913575 L121.482564,43.8686614 C121.466638,46.6794224 121.274083,64.0305893 118.946,72.721 C117.549,77.947 113.433,82.065 108.206,83.461 C99.1081178,85.8992017 63.7134622,85.9959983 60.9174656,85.9998411 L60.6412253,85.9999314 C58.4883235,85.9977149 22.46878,85.92383 13.279,83.461 C8.052,82.065 3.936,77.947 2.539,72.721 C0.128232323,63.7254848 0.00647637996,45.4504117 0.000327089897,43.6273901 L0.000327089897,43.3326172 C0.00647637996,41.5096842 0.128232323,23.2354646 2.539,14.239 C3.936,9.013 8.052,4.896 13.279,3.499 C22.18456,1.11328 56.285974,0.9701368 60.3460837,0.961548208 L61.1379267,0.961548208 Z M186.544,25.59 C190.482,25.59 193.638,26.402 196.013,28.023 C198.387,29.645 200.125,32.179 201.226,35.625 C202.325,39.071 202.876,43.661 202.876,49.395 L202.876,57.127 C202.876,62.803 202.34,67.364 201.269,70.81 C200.197,74.256 198.459,76.776 196.056,78.367 C193.652,79.96 190.395,80.757 186.283,80.757 C182.054,80.757 178.738,79.945 176.336,78.324 C173.931,76.704 172.222,74.184 171.21,70.766 C170.196,67.35 169.69,62.803 169.69,57.127 L169.69,49.395 C169.69,43.661 170.268,39.056 171.427,35.581 C172.585,32.106 174.394,29.573 176.857,27.98 C179.318,26.387 182.547,25.59 186.544,25.59 Z M221.083,26.632 L221.083,65.727 C221.083,68.103 221.344,69.796 221.865,70.809 C222.386,71.823 223.255,72.329 224.471,72.329 C225.514,72.329 226.513,72.012 227.468,71.373 C228.424,70.737 229.133,69.927 229.597,68.942 L229.597,26.632 L241.586,26.632 L241.586,79.888 L232.203,79.888 L231.16,73.372 L230.9,73.372 C228.351,78.295 224.528,80.756 219.432,80.756 C215.899,80.756 213.293,79.599 211.613,77.281 C209.933,74.966 209.094,71.345 209.094,66.422 L209.094,26.632 L221.083,26.632 Z M282.579,26.632 L282.579,65.727 C282.579,68.103 282.839,69.796 283.36,70.809 C283.882,71.823 284.751,72.329 285.967,72.329 C287.01,72.329 288.009,72.012 288.964,71.373 C289.92,70.737 290.629,69.927 291.093,68.942 L291.093,26.632 L303.082,26.632 L303.082,79.888 L293.699,79.888 L292.656,73.372 L292.397,73.372 C289.846,78.295 286.024,80.756 280.928,80.756 C277.395,80.756 274.789,79.599 273.109,77.281 C271.429,74.966 270.59,71.345 270.59,66.422 L270.59,26.632 L282.579,26.632 Z M365.461,25.63 C369.572,25.63 372.729,26.383 374.93,27.888 C377.13,29.395 378.68,31.741 379.578,34.925 C380.476,38.112 380.925,42.514 380.925,48.131 L380.925,57.253 L360.857,57.253 L360.857,59.946 C360.857,63.364 360.956,65.927 361.16,67.635 C361.362,69.344 361.781,70.589 362.42,71.371 C363.057,72.153 364.04,72.544 365.374,72.544 C367.168,72.544 368.4,71.849 369.066,70.458 C369.731,69.069 370.093,66.752 370.151,63.508 L380.49,64.116 C380.548,64.581 380.577,65.218 380.577,66.028 C380.577,70.951 379.231,74.629 376.537,77.062 C373.845,79.493 370.035,80.71 365.113,80.71 C359.206,80.71 355.064,78.858 352.69,75.15 C350.314,71.445 349.127,65.71 349.127,57.948 L349.127,48.652 C349.127,40.659 350.358,34.825 352.82,31.146 C355.281,27.469 359.495,25.63 365.461,25.63 Z M321.867,4.304 L321.866,32.366 L321.954,32.366 C322.996,30.339 324.474,28.703 326.385,27.457 C328.296,26.213 330.352,25.59 332.553,25.59 C335.39,25.59 337.62,26.343 339.242,27.848 C340.863,29.355 342.036,31.787 342.761,35.145 C343.484,38.506 343.847,43.168 343.847,49.133 L343.847,49.133 L343.847,57.56 C343.847,65.495 342.891,71.329 340.98,75.066 C339.068,78.801 336.085,80.669 332.032,80.669 C329.773,80.669 327.716,80.148 325.863,79.106 C324.009,78.063 322.619,76.644 321.693,74.849 L321.693,74.849 L321.433,74.849 L320.216,79.887 L310.313,79.887 L310.313,4.304 L321.867,4.304 Z M145.404,6.996 L150.182,29.324 C151.399,34.827 152.296,39.518 152.875,43.398 L153.223,43.398 C153.628,40.618 154.526,35.956 155.916,29.411 L160.868,6.996 L172.77,6.996 L158.957,56.256 L158.957,79.888 L147.142,79.888 L147.142,56.256 L133.502,6.996 L145.404,6.996 Z M274.164,6.998 L274.164,16.641 L262.262,16.641 L262.262,79.888 L250.534,79.888 L250.534,16.641 L238.632,16.641 L238.632,6.998 L274.164,6.998 Z M186.283,33.843 C184.661,33.843 183.516,34.727 182.851,36.493 C182.185,38.26 181.852,41.054 181.852,44.877 L181.852,61.471 C181.852,65.409 182.17,68.247 182.808,69.984 C183.444,71.722 184.602,72.59 186.283,72.59 C187.962,72.59 189.135,71.722 189.801,69.984 C190.466,68.247 190.8,65.409 190.8,61.471 L190.8,44.877 C190.8,41.054 190.466,38.26 189.801,36.493 C189.135,34.727 187.962,33.843 186.283,33.843 Z M327.166,34.107 C326.007,34.107 324.937,34.571 323.952,35.496 C322.967,36.424 322.272,37.612 321.867,39.058 L321.867,39.058 L321.867,69.291 C322.389,70.219 323.068,70.913 323.909,71.376 C324.748,71.841 325.66,72.071 326.646,72.071 C327.918,72.071 328.933,71.609 329.686,70.682 C330.439,69.756 330.975,68.193 331.293,65.99 C331.611,63.79 331.772,60.749 331.772,56.868 L331.772,56.868 L331.772,50.005 C331.772,45.835 331.641,42.62 331.38,40.362 C331.119,38.103 330.655,36.495 329.99,35.54 C329.323,34.585 328.383,34.107 327.166,34.107 Z M48.594,25.257 L48.594,61.703 L80.155,43.481 L48.594,25.257 Z M365.2,33.709 C363.925,33.709 362.984,34.087 362.376,34.839 C361.769,35.592 361.362,36.823 361.16,38.531 C360.956,40.24 360.857,42.831 360.857,46.306 L360.857,50.129 L369.63,50.129 L369.63,46.306 C369.63,42.89 369.514,40.298 369.283,38.531 C369.051,36.765 368.632,35.52 368.024,34.796 C367.415,34.071 366.474,33.709 365.2,33.709 Z" id="Combined-Shape" fill="#000000"></path>
    </g>
</svg>