<?xml version="1.0" encoding="UTF-8"?>
<svg width="69px" height="24px" viewBox="0 0 69 24" version="1.1" xmlns="http://www.w3.org/2000/svg" xmlns:xlink="http://www.w3.org/1999/xlink">
    <title>FiguAR</title>
    <g id="FiguAR" stroke="none" stroke-width="1" fill="none" fill-rule="evenodd">
        <g id="Shape" transform="translate(0.166016, 4.400391)" fill-rule="nonzero">
            <path d="M41.6269531,14.5996094 L43.21875,11.5039062 L47.8183594,11.5039062 L48.0527344,14.5996094 L51.6953125,14.5996094 L50.0742188,0.5078125 L45.6894531,0.5078125 L37.8378906,14.5996094 L41.6269531,14.5996094 Z M47.671875,8.92578125 L44.5175781,8.92578125 L47.203125,3.65234375 L47.28125,3.65234375 L47.671875,8.92578125 Z M56.5488281,14.5996094 L57.59375,9.66796875 L59.546875,9.66796875 L60.9921875,14.5996094 L64.7324219,14.5996094 L63.0722656,9.31640625 C65.2792969,8.56445312 66.5,6.640625 66.5,4.59960938 C66.5,2.2265625 64.8496094,0.5078125 61.9589844,0.5078125 L55.953125,0.5078125 L52.9550781,14.5996094 L56.5488281,14.5996094 Z M60.3378906,7.13867188 L58.1210938,7.13867188 L58.9707031,3.21289062 L60.9726562,3.21289062 C62.1933594,3.21289062 62.8867188,3.80859375 62.8867188,4.90234375 C62.8867188,6.2109375 61.8808594,7.13867188 60.3378906,7.13867188 Z" id="AR-shadow" fill="#CFDCE6"></path>
            <path d="M43.6269531,14.5996094 L45.21875,11.5039062 L49.8183594,11.5039062 L50.0527344,14.5996094 L53.6953125,14.5996094 L52.0742188,0.5078125 L47.6894531,0.5078125 L39.8378906,14.5996094 L43.6269531,14.5996094 Z M49.671875,8.92578125 L46.5175781,8.92578125 L49.203125,3.65234375 L49.28125,3.65234375 L49.671875,8.92578125 Z M58.5488281,14.5996094 L59.59375,9.66796875 L61.546875,9.66796875 L62.9921875,14.5996094 L66.7324219,14.5996094 L65.0722656,9.31640625 C67.2792969,8.56445312 68.5,6.640625 68.5,4.59960938 C68.5,2.2265625 66.8496094,0.5078125 63.9589844,0.5078125 L57.953125,0.5078125 L54.9550781,14.5996094 L58.5488281,14.5996094 Z M62.3378906,7.13867188 L60.1210938,7.13867188 L60.9707031,3.21289062 L62.9726562,3.21289062 C64.1933594,3.21289062 64.8867188,3.80859375 64.8867188,4.90234375 C64.8867188,6.2109375 63.8808594,7.13867188 62.3378906,7.13867188 Z" id="AR" fill="#0095FF"></path>
            <path d="M2.59765625,14.5996094 L3.81835937,8.88671875 L9.65820312,8.88671875 L10.0976562,6.78710938 L4.2578125,6.78710938 L5.14648438,2.68554688 L11.5332031,2.68554688 L11.9921875,0.5078125 L2.99804688,0.5078125 L0,14.5996094 L2.59765625,14.5996094 Z M14.9316406,2.68554688 C15.6738281,2.68554688 16.2597656,2.08007812 16.2597656,1.34765625 C16.2597656,0.595703125 15.6738281,0 14.9316406,0 C14.1894531,0 13.59375,0.595703125 13.59375,1.34765625 C13.59375,2.08007812 14.1894531,2.68554688 14.9316406,2.68554688 Z M13.3105469,14.5996094 L15.5078125,4.22851562 L13.1054688,4.22851562 L10.8984375,14.5996094 L13.3105469,14.5996094 Z M19.9121094,18.515625 C22.6953125,18.515625 24.6972656,17.0996094 25.2734375,14.3945312 L27.4121094,4.22851562 L25.078125,4.22851562 L24.6484375,6.25976562 L24.5605469,6.25976562 C24.2089844,4.98046875 22.96875,4.07226562 21.40625,4.05273437 C18.2226562,4.01367187 16.2402344,7.08984375 16.2402344,10.3417969 C16.2402344,12.8710937 17.734375,14.5117187 19.9804688,14.5117187 C21.2988281,14.5117187 22.5195312,13.8574219 23.1445312,12.8515625 L23.2324219,12.8515625 L22.890625,14.3359375 C22.5097656,15.9082031 21.5332031,16.6992187 19.9804688,16.6992187 C18.75,16.6992187 17.9199219,16.1621094 17.7832031,15.3320312 L15.4003906,15.3320312 C15.4101562,17.2460937 17.2558594,18.515625 19.9121094,18.515625 Z M20.8300781,12.6464844 C19.4238281,12.6464844 18.6523438,11.640625 18.6523438,10.15625 C18.6523438,7.88085938 19.8925781,6.09375 21.71875,6.09375 C23.0078125,6.09375 23.9746094,7.109375 23.9746094,8.58398438 C23.9746094,10.7714844 22.734375,12.6464844 20.8300781,12.6464844 Z M31.1230469,14.8046875 C32.65625,14.8046875 33.9453125,13.9941406 34.4824219,13.0566406 L34.53125,13.0566406 L34.1992188,14.5996094 L36.4941406,14.5996094 L38.7011719,4.22851562 L36.3085938,4.22851562 L35,10.3417969 C34.6972656,11.7675781 33.6523438,12.734375 32.2558594,12.734375 C31.0351562,12.734375 30.4101562,12.1679688 30.4101562,11.015625 C30.4101562,10.7910156 30.4589844,10.3710938 30.5175781,10.0585938 L31.7675781,4.22851562 L29.3652344,4.22851562 L28.0566406,10.4394531 C27.96875,10.859375 27.9199219,11.4355469 27.9199219,11.8554688 C27.9199219,13.5546875 29.140625,14.8046875 31.1230469,14.8046875 Z" id="Figu" fill="#36434D"></path>
        </g>
    </g>
</svg>