<?xml version="1.0" encoding="UTF-8"?>
<svg width="601px" height="126px" viewBox="0 0 601 126" version="1.1" xmlns="http://www.w3.org/2000/svg" xmlns:xlink="http://www.w3.org/1999/xlink">
    <title>Facebook-logo</title>
    <g id="Facebook-logo" stroke="none" stroke-width="1" fill="none" fill-rule="evenodd">
        <path d="M341.568566,48.5812451 C358.333918,48.5812451 365.696242,58.7997847 365.696242,73.7866423 L365.696242,82.4110697 L331.370043,82.4110697 C331.707829,89.7948532 334.994741,93.0812076 344.059984,93.0812076 C350.177099,93.0812076 356.637995,91.8325531 361.395973,89.7948532 L364.338105,101.028738 C360.037836,103.299747 351.197451,105 343.377417,105 C322.76151,105 315.054405,94.6753198 315.054405,78.7792575 L315.054405,74.0119408 C315.054405,58.6876361 323.775866,48.5812451 341.568566,48.5812451 Z M232.127372,48.581145 C240.285191,48.581145 245.268027,52.7847147 247.647516,58.0026285 L247.647516,49.7166496 L263.286583,49.7166496 L263.286583,103.751245 L247.647516,103.751245 L247.647516,95.5844244 C245.380955,100.803339 240.285191,104.88675 232.127372,104.88675 C217.170871,104.88675 210.033404,93.5397151 210.033404,78.4407089 L210.033404,75.0341953 C210.033404,59.9351891 217.170871,48.581145 232.127372,48.581145 Z M297.268701,48.581145 C303.610673,48.581145 309.620856,49.9419481 312.900773,52.2139585 L309.276075,63.7933011 C306.784657,62.5446467 302.709246,61.2969935 298.401981,61.2969935 C289.561596,61.2969935 285.711041,66.4027587 285.711041,75.1473452 L285.711041,78.3205497 C285.711041,87.0651363 289.561596,92.1709014 298.401981,92.1709014 C302.709246,92.1709014 306.784657,90.9232483 309.276075,89.6745938 L312.900773,101.254938 C309.620856,103.524946 303.610673,104.88675 297.268701,104.88675 C278.12386,104.88675 269.396403,94.5550605 269.396403,77.9821013 L269.396403,75.4857937 C269.396403,58.9128345 278.12386,48.581145 297.268701,48.581145 Z M388.810462,21.1057401 L388.810462,57.2065737 C391.189951,52.439257 396.398643,48.581145 403.99282,48.581145 C418.949321,48.581145 426.198717,59.9291812 426.198717,75.027186 L426.198717,78.4336997 C426.198717,93.5327058 418.949321,104.88675 403.99282,104.88675 C395.835001,104.88675 390.169599,100.79633 387.903039,95.5774151 L387.903039,103.751245 L372.495824,103.751245 L372.495824,22.5796931 L388.810462,21.1057401 Z M458.484912,48.5813453 C476.496473,48.5813453 485.335859,59.8222395 485.335859,75.372844 L485.335859,78.0954515 C485.335859,93.652064 476.496473,104.88695 458.484912,104.88695 C440.466356,104.88695 431.632966,93.652064 431.632966,78.0954515 L431.632966,75.372844 C431.632966,59.8222395 440.466356,48.5813453 458.484912,48.5813453 Z M517.622254,48.5813453 C535.633814,48.5813453 544.4732,59.8222395 544.4732,75.372844 L544.4732,78.0954515 C544.4732,93.652064 535.633814,104.88695 517.622254,104.88695 C499.603697,104.88695 490.770307,93.652064 490.770307,78.0954515 L490.770307,75.372844 C490.770307,59.8222395 499.603697,48.5813453 517.622254,48.5813453 Z M199.609924,21 C202.896837,21 206.747391,21.2252985 209.125881,21.5647483 L209.125881,34.1664455 L201.876485,34.1664455 C196.780721,34.1664455 195.30266,36.4374546 195.30266,41.4310712 L195.30266,49.7170501 L208.901024,49.7170501 L207.541887,63.1158034 L195.30266,63.1158034 L195.30266,103.757654 L178.988021,103.757654 L178.988021,63.1158034 L168,63.1158034 L168,49.7170501 L178.988021,49.7170501 L178.988021,41.6563697 C178.988021,28.1514757 184.427567,21 199.609924,21 Z M566.898658,21.106441 L566.898658,75.4854933 L582.988439,49.7163492 L600.32343,49.7163492 L583.439153,76.3956993 L601,103.750945 L583.671006,103.750945 L566.898658,77.304904 L566.898658,103.750945 L550.58302,103.750945 L550.58302,22.586402 L566.898658,21.106441 Z M236.885351,61.4091421 C229.298169,61.4091421 226.349042,66.7482164 226.349042,74.8078955 L226.349042,78.6660075 C226.349042,86.7266879 229.298169,92.0587528 236.885351,92.0587528 C243.572104,92.0587528 246.971945,87.1782862 246.971945,79.4630636 L246.971945,74.0118407 C246.971945,66.2896087 243.572104,61.4091421 236.885351,61.4091421 Z M399.121914,61.4091421 C392.43516,61.4091421 388.810462,66.1764588 388.810462,73.8916815 L388.810462,79.5692042 C388.810462,87.2914362 392.43516,92.0587528 399.121914,92.0587528 C406.934951,92.0587528 409.884078,86.3812301 409.884078,78.7721481 L409.884078,74.6887376 C409.884078,67.0796555 406.934951,61.4091421 399.121914,61.4091421 Z M458.484912,61.4093424 C450.890735,61.4093424 447.947604,67.0868651 447.947604,74.2373395 L447.947604,79.230956 C447.947604,86.3814304 450.890735,92.0589531 458.484912,92.0589531 C466.072093,92.0589531 469.02122,86.3814304 469.02122,79.230956 L469.02122,74.2373395 C469.02122,67.0868651 466.072093,61.4093424 458.484912,61.4093424 Z M517.622254,61.4093424 C510.028077,61.4093424 507.084946,67.0868651 507.084946,74.2373395 L507.084946,79.230956 C507.084946,86.3814304 510.028077,92.0589531 517.622254,92.0589531 C525.209435,92.0589531 528.158562,86.3814304 528.158562,79.230956 L528.158562,74.2373395 C528.158562,67.0868651 525.209435,61.4093424 517.622254,61.4093424 Z M341.568566,59.8231407 C334.199246,59.8231407 331.370043,64.4773074 331.370043,71.7409317 L351.084522,71.7409317 L351.084522,70.3801287 C351.084522,64.4773074 348.706033,59.8231407 341.568566,59.8231407 Z" id="Combined-Shape" fill="#000000"></path>
        <path d="M126,63 C126,28.2060352 97.7939648,0 63,0 C28.2060352,0 0,28.2060352 0,63 C0,94.4451211 23.0381895,120.508418 53.15625,125.234648 L53.15625,81.2109375 L37.1601562,81.2109375 L37.1601562,63 L53.15625,63 L53.15625,49.1203125 C53.15625,33.3309375 62.561707,24.609375 76.9522852,24.609375 C83.845002,24.609375 91.0546875,25.8398437 91.0546875,25.8398437 L91.0546875,41.34375 L83.1105352,41.34375 C75.2843848,41.34375 72.84375,46.200041 72.84375,51.182209 L72.84375,63 L90.3164062,63 L87.5232422,81.2109375 L72.84375,81.2109375 L72.84375,125.234648 C102.961811,120.508418 126,94.4451211 126,63" id="Fill-1" fill="#000000"></path>
    </g>
</svg>