<?xml version="1.0" encoding="UTF-8"?>
<svg width="218px" height="50px" viewBox="0 0 218 50" version="1.1" xmlns="http://www.w3.org/2000/svg" xmlns:xlink="http://www.w3.org/1999/xlink">
    <title>Artboard Copy</title>
    <g id="Artboard-Copy" stroke="none" stroke-width="1" fill="none" fill-rule="evenodd">
        <path d="M53.5440337,8 L64.125,35 L52.9449516,35 L51.9662522,31.470638 L43.6595962,31.470638 L42.6817445,35 L31.5,35 L42.0792719,8 L53.5440337,8 Z M10.0081724,8 L19.2729433,21.6168831 L19.2729433,8 L29.25,8 L29.25,35 L19.2393052,35 L9.97705718,21.3721062 L9.97705718,35 L0,35 L0,8 L10.0081724,8 Z M129.28282,8 C136.397809,8 141.795986,10.2326369 141.795986,17.1871824 C141.795986,21.3263693 139.543086,23.9037267 136.050635,24.8997741 L136.050635,24.8997741 L144,35 L132.701528,35 L126.832719,26.565782 L126.832719,35 L117,35 L117,8 L129.28282,8 Z M112.189967,8 L112.189967,15.0299266 L101.990359,15.0299266 L101.990359,18.2044043 L111.386698,18.2044043 L111.386698,24.8455675 L101.990359,24.8455675 L101.990359,27.9683794 L112.5,27.9683794 L112.5,35 L92.25,35 L92.25,8 L112.189967,8 Z M69.2531994,8 L74.1107965,24.2747035 L74.3842181,24.2747035 L79.2451388,8 L90,8 L78.9027385,35 L69.5914439,35 L58.5,8 L69.2531994,8 Z M47.3729908,15.875 L47.1239636,15.875 L45,24.875 L49.5,24.875 L47.3729908,15.875 Z M128.098868,14.75 L126,14.75 L126,20.375 L128.140055,20.375 C129.068029,20.375 130.18765,20.127826 130.770995,19.6236268 C131.351819,19.1292788 131.625,18.4576103 131.625,17.6166813 C131.625,16.7300788 131.364428,16.0342302 130.810501,15.5192844 C130.254053,15.0097118 129.106694,14.75 128.098868,14.75 L128.098868,14.75 Z" id="Combined-Shape" fill="#000000" fill-rule="nonzero"></path>
        <path d="M158,9.4207648 C158,4.26975896 162.157582,0.0844530977 167.319421,0.00126208786 L167.476144,0 L208.523884,0 C213.704026,0 217.915028,4.13379581 217.99873,9.26497253 L218,9.4207648 L218,31.769467 C218,36.9205002 213.840799,41.1060782 208.680558,41.1892746 L208.523884,41.1905368 L194.384561,41.1905368 L189.559309,48.9725231 C189.559309,48.9725231 189.517608,49.0637373 189.396703,49.2045787 C189.112633,49.6783937 188.596548,50 187.99902,50 C187.399562,50 186.879559,49.6734033 186.597727,49.1945979 L186.549558,49.1334662 C186.520405,49.0951009 186.49716,49.0618544 186.479761,49.0357702 L181.614907,41.1905368 L167.476144,41.1905368 C162.29434,41.1905368 158.084939,37.0564692 158.001269,31.9252602 L158,31.769467 L158,9.4207648 Z M199.622775,21.8277134 L199.621701,22.0540624 C199.632358,22.6130626 199.860893,27.2993441 204.527598,27.395909 L204.749044,27.3983012 C205.122961,27.396884 206.823673,27.3201524 207.84439,26.0812207 L207.900384,26.0111885 L207.901203,26.8704639 C207.915551,27.0539076 208.057481,29.4555793 205.655694,29.5179294 L205.559559,29.5191653 L204.674882,29.5191653 L204.674882,32.7427083 L206.156436,32.7420937 C206.713174,32.7292773 211.373053,32.4653576 211.468095,27.2218363 L211.469569,27.0580728 L211.469569,16.7908456 L207.900384,16.7908456 L207.900384,17.8083414 L207.849993,17.7476967 C207.620816,17.4838218 206.62932,16.4668598 204.927752,16.424601 L204.723717,16.4222596 C204.027575,16.4268869 199.716414,16.6641477 199.622775,21.8277134 L199.622775,21.8277134 Z M203.344929,22.0379916 C203.344929,20.7471305 204.401167,19.6999968 205.705093,19.6999968 C207.008151,19.6999968 208.065509,20.7471305 208.065509,22.0379916 C208.065509,23.3299621 207.008151,24.3770956 205.705093,24.3770956 C204.401167,24.3770956 203.344929,23.3299621 203.344929,22.0379916 Z M185.489035,21.876206 L185.486729,22.1156203 C185.49144,22.7791476 185.724354,27.4748003 191.370279,27.5757053 L191.601326,27.5766004 C192.155784,27.5628114 197.647841,27.2976301 197.763402,22.2022554 L197.765966,21.9812886 C197.765966,21.3990124 197.59174,16.5263027 191.742904,16.424851 L191.513343,16.4239266 C190.977035,16.4368904 185.598741,16.6960339 185.489035,21.876206 L185.489035,21.876206 Z M189.196175,22.0379916 C189.196175,20.7471305 190.253813,19.6999968 191.55715,19.6999968 C192.860236,19.6999968 193.917594,20.7471305 193.917594,22.0379916 C193.917594,23.3299621 192.860236,24.3770956 191.55715,24.3770956 C190.253813,24.3770956 189.196175,23.3299621 189.196175,22.0379916 Z M177.682112,11.6989853 L177.682112,15.2066848 L177.731278,15.2079877 C178.010899,15.2253717 179.323545,15.4490318 179.357593,18.1175987 L179.358267,18.2242118 L179.358267,27.1989142 L182.898905,27.1989142 L182.898554,17.2693093 C182.882889,16.4429306 182.583566,11.7992899 177.836782,11.7005826 L177.682112,11.6989853 Z M164.52864,12.0380582 L164.52864,27.1989142 L168.24056,27.1989142 L168.24056,26.0111885 L168.267625,26.0554672 C168.429296,26.3086648 169.30664,27.5300227 171.214095,27.5760215 L171.338984,27.5767088 C171.628234,27.5614353 176.402362,27.2314091 176.500767,22.0826346 L176.502044,21.9135977 C176.492863,21.7027906 176.217716,16.4842432 171.473445,16.3777641 L171.293645,16.3768863 C171.063634,16.3854613 169.619439,16.4889928 168.27595,17.7390151 L168.202777,17.8083414 L168.202777,12.0380582 L164.52864,12.0380582 Z M168.155199,22.0379916 C168.155199,20.7471305 169.213368,19.6999968 170.516174,19.6999968 C171.81954,19.6999968 172.87659,20.7471305 172.87659,22.0379916 C172.87659,23.3299621 171.81954,24.3770956 170.516174,24.3770956 C169.213368,24.3770956 168.155199,23.3299621 168.155199,22.0379916 Z" id="NAVER-Blog" fill="#000000" fill-rule="nonzero"></path>
    </g>
</svg>