<?xml version="1.0" encoding="UTF-8"?>
<svg width="126px" height="26px" viewBox="0 0 126 26" version="1.1" xmlns="http://www.w3.org/2000/svg" xmlns:xlink="http://www.w3.org/1999/xlink">
    <title>Artboard</title>
    <g id="Artboard" stroke="none" stroke-width="1" fill="none" fill-rule="evenodd">
        <path d="M10.06336,26 C22.13888,26 28.74368,15.9962435 28.74368,7.32103089 C28.74368,7.03689144 28.74368,6.7540319 28.72448,6.47245226 C30.0093841,5.54312537 31.118535,4.39244832 32,3.07429802 C30.8017652,3.6052059 29.5306615,3.95337512 28.22912,4.10718332 C29.5996723,3.28673969 30.6254381,1.99632412 31.11552,0.476085929 C29.8267616,1.24077343 28.416827,1.77968704 26.94656,2.06957069 C24.9114659,-0.0942481468 21.6777208,-0.623850414 19.0586231,0.777734421 C16.4395254,2.17931926 15.086432,5.16352386 15.75808,8.05697767 C10.4792265,7.79235621 5.560929,5.2991909 2.2272,1.19795372 C0.484637128,4.19760203 1.37470449,8.03503939 4.25984,9.96147993 C3.21502874,9.93051583 2.1929976,9.64868742 1.28,9.13977936 C1.28,9.16665741 1.28,9.19481538 1.28,9.22297334 C1.28085521,12.3479863 3.4838419,15.0395577 6.5472,15.6583479 C5.58063308,15.9219321 4.56650315,15.9604628 3.58272,15.7709798 C4.44281335,18.4452476 6.90761544,20.2772572 9.71648,20.3300101 C7.39166085,22.1569908 4.51975617,23.1487857 1.56288,23.1458064 C1.04051657,23.1448037 0.518661204,23.1131784 0,23.0510933 C3.00241402,24.9777079 6.49588915,25.9996377 10.06336,25.9948804" id="Path" fill="#1DA1F2" fill-rule="nonzero"></path>
        <path d="M45.69,23 L45.69,5.87 L51.51,5.87 L51.51,2.78 L36.24,2.78 L36.24,5.87 L42,5.87 L42,23 L45.69,23 Z M58.26,23 L60.12,17.06 C60.54,15.62 60.9,14.18 61.23,12.38 L61.29,12.38 C61.62,14.15 61.95,15.53 62.4,17.06 L64.14,23 L67.56,23 L72.15,8.39 L68.52,8.39 L66.9,14.87 C66.51,16.58 66.15,18.17 65.94,19.76 L65.88,19.76 C65.55,18.17 65.16,16.58 64.71,14.87 L62.88,8.39 L59.88,8.39 L57.96,15.05 C57.57,16.55 57.09,18.17 56.79,19.76 L56.73,19.76 C56.46,18.17 56.13,16.58 55.77,15.02 L54.27,8.39 L50.49,8.39 L54.81,23 L58.26,23 Z M76.05,6.29 C77.34,6.29 78.15,5.39 78.15,4.31 C78.12,3.17 77.34,2.3 76.08,2.3 C74.85,2.3 74.01,3.17 74.01,4.31 C74.01,5.39 74.82,6.29 76.05,6.29 Z M77.91,23 L77.91,8.39 L74.22,8.39 L74.22,23 L77.91,23 Z M86.55,23.33 C87.69,23.33 88.68,23.15 89.22,22.94 L89.16,20.15 C88.74,20.27 88.38,20.3 87.72,20.3 C86.31,20.3 85.83,19.4 85.83,17.6 L85.83,11.15 L89.34,11.15 L89.34,8.39 L85.83,8.39 L85.83,4.64 L82.2,5.66 L82.2,8.39 L80.13,8.39 L80.13,11.15 L82.2,11.15 L82.2,18.02 C82.2,19.94 82.56,21.29 83.37,22.13 C84.06,22.88 85.17,23.33 86.55,23.33 Z M96.78,23.33 C97.92,23.33 98.91,23.15 99.45,22.94 L99.39,20.15 C98.97,20.27 98.61,20.3 97.95,20.3 C96.54,20.3 96.06,19.4 96.06,17.6 L96.06,11.15 L99.57,11.15 L99.57,8.39 L96.06,8.39 L96.06,4.64 L92.43,5.66 L92.43,8.39 L90.36,8.39 L90.36,11.15 L92.43,11.15 L92.43,18.02 C92.43,19.94 92.79,21.29 93.6,22.13 C94.29,22.88 95.4,23.33 96.78,23.33 Z M108.48,23.3 C110.58,23.3 112.32,22.91 113.58,22.37 L113.04,19.85 C111.9,20.24 110.7,20.51 108.99,20.51 C106.62,20.51 104.58,19.37 104.49,16.73 L114.27,16.73 C114.33,16.4 114.39,15.86 114.39,15.17 C114.39,11.96 112.83,8.06 108.09,8.06 C103.41,8.06 100.95,11.87 100.95,15.92 C100.95,20.39 103.74,23.3 108.48,23.3 Z M110.91,14.15 L104.49,14.15 C104.64,12.65 105.6,10.58 107.88,10.58 C110.34,10.58 110.94,12.8 110.91,14.15 Z M120.75,23 L120.75,15.41 C120.75,15.02 120.78,14.63 120.84,14.3 C121.17,12.62 122.4,11.51 124.14,11.51 C124.59,11.51 124.92,11.54 125.25,11.6 L125.25,8.15 C124.95,8.09 124.74,8.06 124.38,8.06 C122.79,8.06 121.08,9.11 120.36,11.15 L120.27,11.15 L120.12,8.39 L116.94,8.39 C117.023077,9.58076923 117.05503,10.8993491 117.059454,12.6524852 L117.06,23 L120.75,23 Z" id="Twitter" fill="#000000" fill-rule="nonzero"></path>
    </g>
</svg>